<svg width="343" height="586" viewBox="0 0 343 586" fill="none" xmlns="http://www.w3.org/2000/svg">
<path d="M159.5 218L171.5 225L233 190L233 175.5L159.5 218Z" fill="white" fill-opacity="0.5"/>
<path d="M135 204L148 211.5L233 162L233 148L135 204Z" fill="white" fill-opacity="0.5"/>
<path d="M111 190L123 197L233 133.5L233 119.5L111 190Z" fill="white" fill-opacity="0.5"/>
<path d="M110 162L110 176.5L233 105V91.0001L110 162Z" fill="white" fill-opacity="0.5"/>
<path d="M183.04 373.774L171.001 366.808L109.3 401.637L109.299 416.066L183.04 373.774Z" fill="white" fill-opacity="0.5"/>
<path d="M207.62 387.705L194.578 380.242L109.299 429.5L109.299 443.431L207.62 387.705Z" fill="white" fill-opacity="0.5"/>
<path d="M231.698 401.637L219.658 394.671L109.299 457.861L109.299 471.792L231.698 401.637Z" fill="white" fill-opacity="0.5"/>
<path d="M232.701 429.5L232.701 415.071L109.298 486.221L109.298 500.152L232.701 429.5Z" fill="white" fill-opacity="0.5"/>
<path d="M0 0H98V196.327L171.392 238.7L245 196.327V0H343V253L269.463 295.321L342 337V586H244L244.2 394L171.22 351.861L98 394V585H0V338L73.1641 295.245L0 253V0Z" fill="white"/>
</svg>
