<svg xmlns="http://www.w3.org/2000/svg" viewBox="0 0 128 128">
    <path fill="#DEA584" d="M62.271 10.88c-.189.11-.982 1.248-1.763 2.529-1.96 3.217-1.982 3.219-4.615.448-1.713-1.802-2.127-2.132-2.679-2.132-.359 0-.812.172-1.008.382-.195.21-.335 1.021-.311 1.802.04 1.324.055 1.335 2.291 1.729 4.729.832 7.858 2.87 9.467 6.174.779 1.596 1.022 2.742 1.022 4.828 0 2.561-.123 2.985-1.522 5.251-1.893 3.066-5.264 5.669-8.616 6.641-2.701.781-6.754.685-9.339-.223-3.756-1.317-7.236-4.38-8.675-7.657-1.141-2.603-1.154-2.648-1.154-4.927 0-2.514.272-3.73 1.213-5.414 1.459-2.609 4.283-4.574 7.701-5.357l1.811-.413-.204-1.583c-.112-.87-.337-1.755-.5-1.967-.246-.32-.772-.402-2.734-.424-1.337-.016-2.947.076-3.578.203-2.87.577-5.387 1.564-7.51 2.947-3.835 2.504-6.892 6.017-8.737 10.031-1.268 2.754-1.493 3.825-1.493 7.094 0 3.487.201 4.45 1.522 7.248 1.442 3.062 2.659 4.83 4.633 6.727 3.875 3.726 8.249 6.031 13.465 7.088 1.189.241 2.166.437 2.171.437.005 0 .028-1.658.052-3.684l.044-3.684 1.287.875c.708.481 2.172 1.358 3.254 1.947 1.082.589 2.364 1.366 2.85 1.726.486.36 1.235.804 1.665.987.43.183 1.323.892 1.985 1.576 1.935 2.003 3.251 2.849 5.216 3.369 1.835.484 4.915.234 6.815-.557 1.201-.499 2.904-1.924 3.564-2.984.886-1.421 1.105-2.264 1.105-4.254 0-2.072-.197-2.771-1.172-4.172-1.456-2.092-3.439-3.265-7.148-4.234-1.516-.396-3.029-.848-3.361-1.004-.333-.156-1.507-.625-2.608-1.041-3.217-1.216-4.275-1.947-4.833-3.338-.366-.911-.464-2.727-.195-3.608.287-.939.447-1.014 2.009-.947 1.222.053 1.314.099 1.862.93.314.478.932 1.197 1.375 1.599.443.402 1.295 1.305 1.894 2.008 1.319 1.546 2.333 2.17 3.37 2.07.672-.064.748-.157 1.019-1.236.276-1.101.262-1.341-.197-3.279-.646-2.726-1.274-4.038-2.468-5.161-1.559-1.465-4.056-2.736-6.798-3.456-1.171-.309-2.218-.633-2.326-.722-.108-.088-.292-.839-.408-1.669-.116-.83-.298-1.633-.405-1.786-.231-.329-1.068-.298-1.544.057m-2.896 26.057c-.718.266-1.57 1.062-1.57 1.466 0 .403.748 1.466 1.223 1.737.597.341 1.951.325 2.552-.031.843-.499 1.152-1.028 1.152-1.973 0-.682-.137-.923-.713-1.25-.893-.505-1.826-.602-2.644-.276m-1.341 8.321c-1.339.594-1.876 2.138-1.096 3.153.615.799 1.049.924 2.462.707 1.221-.188 1.825-.616 1.982-1.404.383-1.925-1.825-3.372-3.348-2.456m12.265 14.092c-.137.137-.249.808-.249 1.491 0 1.323.742 3.209 1.636 4.156.901.953 2.287 1.477 3.575 1.346 1.11-.113 2.406-.883 2.406-1.432 0-.172-.552-.97-1.227-1.772-1.124-1.336-2.72-3.689-3.124-4.606-.239-.544-.503-.644-1.55-.592-.674.034-1.33.272-1.467.409m-20.789 3.125c-.705.325-1.011.883-1.011 1.841 0 1.086.454 1.614 1.627 1.894 1.238.297 2.143.038 2.584-.741.779-1.375-.379-3.335-2.089-3.541-.45-.054-.937.167-1.111.547m-.126 8.645c-.114.043-.403.585-.641 1.204-.239.619-.815 1.747-1.281 2.506-.466.76-.847 1.476-.847 1.592 0 .116.238.557.53.981.941 1.367 2.702 2.219 4.026 1.946 1.005-.207 2.531-1.339 2.531-1.877 0-.179-.466-.815-1.036-1.413-.57-.598-1.243-1.534-1.496-2.081-.253-.547-.667-1.346-.921-1.775-.254-.429-.524-.872-.601-.985s-.149-.142-.264-.099m9.789 4.261c-1.364.682-1.852 2.456-.944 3.433.621.669 1.312.883 2.677.831 1.224-.047 1.854-.527 1.951-1.488.172-1.703-2.301-3.523-3.684-2.776m-2.585 9.533c-.299.134-.544.411-.544.615 0 .204.245.748.544.115.299-.633.544-1.15.544-1.15s-.245.286-.544.42"></path>
</svg> 