<svg xmlns="http://www.w3.org/2000/svg" viewBox="0 0 128 128">
    <path fill="#3178C6" d="M2,63.91v62.5h125V1.41H2Zm100.73-5a15.56,15.56,0,0,1,7.82,4.5,20.58,20.58,0,0,1,3,4c0,.16-5.4,3.81-8.69,5.85-.12.08-.6-.44-1.13-1.23a7.09,7.09,0,0,0-5.87-3.53c-3.79-.26-6.23,1.73-6.21,5a4.58,4.58,0,0,0,.54,2.34c.83,1.73,2.38,2.76,7.24,4.86,8.95,3.85,12.78,6.39,15.16,10,2.66,4,3.25,10.46,1.45,15.24-2,5.2-6.9,8.73-13.83,9.9a38.32,38.32,0,0,1-9.52-.1A23,23,0,0,1,80.31,113c-.26-.2-.36-.29-.25-.37,1.77-1.11,9.52-5.47,9.66-5.55a1.19,1.19,0,0,1,.88.24,11.91,11.91,0,0,0,3.88,2.58c3.32,1.07,7.89.76,10.12-1.71a5.29,5.29,0,0,0,1.75-3.65c0-1.41-.2-2-1.2-3.09-1.22-1.34-3.84-2.45-11.73-5.32-8.05-2.93-11.53-4.72-14.12-7.26a15.84,15.84,0,0,1-3.63-6.44,24,24,0,0,1-.22-8c1.33-6.23,6-10.58,12.82-11.87A31.66,31.66,0,0,1,102.73,58.93ZM73.39,64.15l0,5.12H57.16V115.5H45.65V69.26H29.38v-5a49.19,49.19,0,0,1,.14-5.16c.06-.08,10-.12,22-.1L73.33,59Z"/>
</svg> 